<svg xmlns="http://www.w3.org/2000/svg" xmlns:svg="http://www.w3.org/2000/svg" id="svg2" width="164.942" height="164.046" version="1.1"><defs id="defs4"><path id="path3779-9-1-34-2" fill="#e6e6e6" fill-opacity="1" stroke="#666" stroke-dasharray="none" stroke-dashoffset="0" stroke-linecap="round" stroke-miterlimit="4" stroke-width="2" d="m 317.89812,194.20932 a 79.64286,79.64286 0 0 1 -136.51371,-2.38286 l 68.97274,-39.82142 z" transform="matrix(-1,0,0,1,423.66072,164.10715)"/><path id="path4417-4" fill="none" stroke="none" d="m 121.78572,347.71932 c 27.47833,37.9228 73.84073,35.52916 108.21428,3.21429"/><path id="path4415-2" fill="none" stroke="none" d="m 175.71429,252.36218 c 45.17969,12.19595 56.69027,45.75883 52.5,89.28571"/><path id="path4375-0" fill="none" stroke="none" d="m 123.21428,340.21932 c -9.44058,-51.7873 13.51269,-77.59604 47.14286,-88.21428"/></defs><metadata id="metadata7"/><g id="layer1" transform="translate(-447.52906,-234.62469)"><path id="path3779-9-1-34-5" fill="#e6e6e6" fill-opacity="1" stroke="#666" stroke-dasharray="none" stroke-dashoffset="0" stroke-linecap="round" stroke-miterlimit="4" stroke-width="1" d="m 317.89812,194.20932 c -23.30878,37.30185 -72.44341,48.64548 -109.74526,25.33669 -11.05732,-6.90938 -20.24918,-16.42783 -26.76845,-27.71955 l 68.97274,-39.82142 z" transform="matrix(-1,0,0,1,780.26121,166.51252)"/><path id="path3779-9-1-8-5-4" fill="#e6e6e6" fill-opacity="1" stroke="#666" stroke-dasharray="none" stroke-dashoffset="0" stroke-linecap="round" stroke-miterlimit="4" stroke-width="1" d="m 181.38441,191.82646 c -21.99277,-38.09259 -8.94128,-86.8014 29.15131,-108.794166 12.10724,-6.990121 25.84119,-10.670119 39.82143,-10.670119 l 0,79.642865 z" transform="matrix(-1,0,0,1,782.67193,162.76252)"/><path id="path3779-9-1-8-3-3-0" fill="#e6e6e6" fill-opacity="1" stroke="#666" stroke-dasharray="none" stroke-dashoffset="0" stroke-linecap="round" stroke-miterlimit="4" stroke-width="1" d="m 250.35715,72.362175 c 43.98554,1e-6 79.64286,35.657325 79.64286,79.642865 0,14.9241 -4.19332,29.54793 -12.10189,42.20428 l -67.54097,-42.20428 z" transform="matrix(-1,0,0,1,778.02907,162.76252)"/><path id="path4495" fill="none" stroke="none" d="m 479.81477,342.62469 c -9.44058,-51.7873 13.51269,-77.59604 47.14286,-88.21428"/><path id="path4499" fill="none" stroke="none" d="m 532.31478,254.76755 c 45.17969,12.19595 56.69027,45.75883 52.5,89.28571"/><path id="path4501" fill="none" stroke="none" d="m 478.38621,350.12469 c 27.47833,37.9228 73.84073,35.52916 108.21428,3.21429"/><text id="text4544" x="531.235" y="353.337" fill="#000" fill-opacity="1" stroke="none" font-family="Liberation Serif" font-size="14" font-stretch="normal" font-style="normal" font-variant="normal" font-weight="normal" letter-spacing="0" text-anchor="middle" word-spacing="0" xml:space="preserve" style="text-align:center;line-height:125%;-inkscape-font-specification:Liberation Serif"><tspan style="-inkscape-font-specification:Liberation Serif Bold" id="tspan4546" x="531.235" y="353.337" fill="#06f" font-size="11" font-weight="bold">Experiment</tspan><tspan style="text-align:center" id="tspan4548" x="531.235" y="364.181" font-size="8" text-anchor="middle">measurements, observations,</tspan><tspan style="text-align:center" id="tspan4562" x="531.235" y="374.181" font-size="8" text-anchor="middle">collect data, test hypothesis,</tspan><tspan id="tspan4613" x="531.235" y="384.181" font-size="10" text-anchor="middle" style="text-align:center"><tspan id="tspan4615" font-size="8">...</tspan></tspan></text><text id="text4544-9" x="466.149" y="276.605" fill="#000" fill-opacity="1" stroke="none" font-family="Liberation Serif" font-size="14" font-stretch="normal" font-style="normal" font-variant="normal" font-weight="normal" letter-spacing="0" text-anchor="start" word-spacing="0" xml:space="preserve" style="text-align:start;line-height:125%;-inkscape-font-specification:Liberation Serif"><tspan style="text-align:start;-inkscape-font-specification:Liberation Serif Bold" id="tspan4546-5" x="466.149" y="276.605" fill="#06f" font-size="11" font-weight="bold" text-anchor="start">Theory</tspan><tspan style="text-align:start" id="tspan4562-0" x="466.149" y="287.449" font-size="8" text-anchor="start"> develop models,</tspan><tspan id="tspan4605" x="466.149" y="297.449" font-size="8" text-anchor="start" style="text-align:start"> hypothesis,</tspan><tspan id="tspan4607" x="466.149" y="307.449" font-size="8" text-anchor="start" style="text-align:start"> predictions, </tspan><tspan id="tspan4611" x="466.149" y="317.449" font-size="8" text-anchor="start" style="text-align:start"> conclusions,</tspan><tspan id="tspan4676" x="466.149" y="327.449" font-size="8" text-anchor="start" style="text-align:start"> ...</tspan></text><text id="text4544-9-5" x="535.329" y="276.605" fill="#000" fill-opacity="1" stroke="none" font-family="Liberation Serif" font-size="12" font-stretch="normal" font-style="normal" font-variant="normal" font-weight="normal" letter-spacing="0" text-anchor="start" word-spacing="0" xml:space="preserve" style="text-align:start;line-height:125%;-inkscape-font-specification:Liberation Serif"><tspan style="text-align:start;-inkscape-font-specification:Liberation Serif Bold" id="tspan4546-5-7" x="535.329" y="276.605" fill="#06f" font-size="11" font-weight="bold" text-anchor="start">Computation</tspan><tspan id="tspan4660" x="535.329" y="287.449" fill="#1c2422" font-size="8" text-anchor="start" style="text-align:start"> simulate models,</tspan><tspan id="tspan4662" x="535.329" y="297.449" fill="#1c2422" font-size="8" text-anchor="start" style="text-align:start"> test hypothesis,</tspan><tspan style="text-align:start" id="tspan4552-8-6" x="535.329" y="307.449" fill="#1c2422" font-size="8" text-anchor="start"> observations,</tspan><tspan id="tspan4674" x="535.329" y="317.449" fill="#1c2422" font-size="8" text-anchor="start" style="text-align:start"> visualizations, </tspan><tspan id="tspan4678" x="535.329" y="327.449" fill="#1c2422" font-size="8" text-anchor="start" style="text-align:start"> ...</tspan></text><flowRoot id="flowRoot4680" fill="#000" fill-opacity="1" stroke="none" font-family="Liberation Serif" font-size="14" font-stretch="normal" font-style="normal" font-variant="normal" font-weight="normal" letter-spacing="0" word-spacing="0" xml:space="preserve" style="line-height:125%;-inkscape-font-specification:Liberation Serif"><flowRegion id="flowRegion4682"><rect id="rect4684" width="296.429" height="350" x="-3.571" y="125.219"/></flowRegion><flowPara id="flowPara4686"/></flowRoot><flowRoot id="flowRoot4688" fill="#000" fill-opacity="1" stroke="none" font-family="Liberation Serif" font-size="14" font-stretch="normal" font-style="normal" font-variant="normal" font-weight="normal" letter-spacing="0" word-spacing="0" xml:space="preserve" style="line-height:125%;-inkscape-font-specification:Liberation Serif"><flowRegion id="flowRegion4690"><rect id="rect4692" width="271.429" height="291.429" x="60.714" y="168.076"/></flowRegion><flowPara id="flowPara4694"/></flowRoot></g></svg>